{"title":"We Bought a Zoo 2011 CaM XviD-INFERNO","uid":6953396,"size":1484429112,"categoryP":"video","categoryS":"movies","magnet":"?xt=urn:btih:d7120940b8de6074b66b0de5f9cbe73e84ffc2e3&amp;dn=We+Bought+a+Zoo+2011+CaM+XviD-INFERNO&amp;tr=udp%3A%2F%2Ftracker.openbittorrent.com%3A80&amp;tr=udp%3A%2F%2Fopen.demonii.com%3A1337&amp;tr=udp%3A%2F%2Ftracker.coppersurfer.tk%3A6969&amp;tr=udp%3A%2F%2Fexodus.desync.com%3A6969","seeders":1,"leechers":0,"uploader":"HeroMaster","files":-1,"time":1326486139,"description":"We Bought a Zoo 2011 CaM XviD-INFERNO\n &lt;a href=&quot;\nhttp://www.imdb.com/title/tt1389137/&quot; rel=&quot;nofollow&quot; target=&quot;_NEW&quot;&gt;\nhttp://www.imdb.com/title/tt1389137/&lt;/a&gt;\nSpecial thanx to a friend 4 this\n\nHere is a nice cam of we bought a zoo\nit had it's issue's but still very nice for a cam just need some TLC\nVideo has 2 or 3 shakes throughout but more then watchable\nAudio is pretty nice for a cam\nCheck sample and enjoy this INFERNO original\nand lots more to come\n\n\nFormat                           : AVI\nFormat/Info                      : Audio Video Interleave\nFile size                        : 1.37 GiB\nDuration                         : 1h 58mn\nOverall bit rate                 : 1 655 Kbps\nWriting library                  : VirtualDub build 32842/release\n\nVideo\nID                               : 0\nFormat                           : MPEG-4 Visual\nFormat profile                   : Advanced Simple@L5\nFormat settings, BVOP            : 2\nFormat settings, QPel            : No\nFormat settings, GMC             : No warppoints\nFormat settings, Matrix          : Default (H.263)\nMuxing mode                      : Packed bitstream\nCodec ID                         : XVID\nCodec ID/Hint                    : XviD\nDuration                         : 1h 58mn\nBit rate                         : 1 515 Kbps\nWidth                            : 624 pixels\nHeight                           : 352 pixels\nDisplay aspect ratio             : 16:9\nFrame rate                       : 29.970 fps\nColor space                      : YUV\nChroma subsampling               : 4:2:0\nBit depth                        : 8 bits\nScan type                        : Progressive\nCompression mode                 : Lossy\nBits/(Pixel*Frame)               : 0.230\nStream size                      : 1.25 GiB (92%)\nWriting library                  : XviD 64\n\nAudio\nID                               : 1\nFormat                           : MPEG Audio\nFormat version                   : Version 1\nFormat profile                   : Layer 3\nMode                             : Joint stereo\nMode extension                   : MS Stereo\nCodec ID                         : 55\nCodec ID/Hint                    : MP3\nDuration                         : 1h 58mn\nBit rate mode                    : Constant\nBit rate                         : 128 Kbps\nChannel(s)                       : 2 channels\nSampling rate                    : 48.0 KHz\nCompression mode                 : Lossy\nStream size                      : 108 MiB (8%)\nAlignment                        : Split accross interleaves\nInterleave, duration             : 33 ms (1.00 video frame)\nInterleave, preload duration     : 500 ms\n\n\nPoster:\n\n &lt;a href=&quot;\nhttp://i.imgur.com/fLEC5.jpg&quot; rel=&quot;nofollow&quot; target=&quot;_NEW&quot;&gt;\nhttp://i.imgur.com/fLEC5.jpg&lt;/a&gt;\n\n\nScreens:\n\n &lt;a href=&quot;\nhttp://i.imgur.com/KPhqJ.png&quot; rel=&quot;nofollow&quot; target=&quot;_NEW&quot;&gt;\nhttp://i.imgur.com/KPhqJ.png&lt;/a&gt;\n\n &lt;a href=&quot;\nhttp://i.imgur.com/no7px.png&quot; rel=&quot;nofollow&quot; target=&quot;_NEW&quot;&gt;\nhttp://i.imgur.com/no7px.png&lt;/a&gt;\n\n &lt;a href=&quot;\nhttp://i.imgur.com/Rlyx4.png&quot; rel=&quot;nofollow&quot; target=&quot;_NEW&quot;&gt;\nhttp://i.imgur.com/Rlyx4.png&lt;/a&gt;\n\n\nENJOY!","torrent":{"xt":"urn:btih:d7120940b8de6074b66b0de5f9cbe73e84ffc2e3","amp;dn":"We+Bought+a+Zoo+2011+CaM+XviD-INFERNO","amp;tr":["udp%3A%2F%2Ftracker.openbittorrent.com%3A80","udp%3A%2F%2Fopen.demonii.com%3A1337","udp%3A%2F%2Ftracker.coppersurfer.tk%3A6969","udp%3A%2F%2Fexodus.desync.com%3A6969"],"infoHash":"d7120940b8de6074b66b0de5f9cbe73e84ffc2e3","infoHashBuffer":{"type":"Buffer","data":[215,18,9,64,184,222,96,116,182,107,13,229,249,203,231,62,132,255,194,227]},"announce":[],"urlList":[]}}